<svg width="1276" height="713" xmlns="http://www.w3.org/2000/svg"><g><path d="M-104,-123L-121,238L-100,31Z" fill="#fcfff9" stroke="#fcfff9"/><path d="M-104,-123L-100,31L22,-145Z" fill="#fefffa" stroke="#fefffa"/><path d="M22,-145L-100,31L98,114Z" fill="#f7fcf3" stroke="#f7fcf3"/><path d="M22,-145L98,114L258,-63Z" fill="#ebf7e8" stroke="#ebf7e8"/><path d="M22,-145L258,-63L798,-148Z" fill="#d4eeda" stroke="#d4eeda"/><path d="M258,-63L98,114L264,109Z" fill="#e0f4dc" stroke="#e0f4dc"/><path d="M258,-63L264,109L430,-32Z" fill="#d8f0dc" stroke="#d8f0dc"/><path d="M258,-63L430,-32L798,-148Z" fill="#c4e8e0" stroke="#c4e8e0"/><path d="M430,-32L264,109L459,103Z" fill="#ceedd5" stroke="#ceedd5"/><path d="M430,-32L459,103L533,-38Z" fill="#c6e9de" stroke="#c6e9de"/><path d="M430,-32L533,-38L798,-148Z" fill="#b8e3e3" stroke="#b8e3e3"/><path d="M533,-38L459,103L629,66Z" fill="#bce6dd" stroke="#bce6dd"/><path d="M533,-38L629,66L798,-148Z" fill="#b0dee6" stroke="#b0dee6"/><path d="M798,-148L629,66L709,89Z" fill="#a9dae9" stroke="#a9dae9"/><path d="M798,-148L709,89L912,-51Z" fill="#9fd1e5" stroke="#9fd1e5"/><path d="M798,-148L912,-51L1143,-43Z" fill="#91c0db" stroke="#91c0db"/><path d="M798,-148L1143,-43L1385,-110Z" fill="#82aacd" stroke="#82aacd"/><path d="M912,-51L709,89L926,138Z" fill="#98ccdc" stroke="#98ccdc"/><path d="M912,-51L926,138L1125,31Z" fill="#8bbbd4" stroke="#8bbbd4"/><path d="M912,-51L1125,31L1143,-43Z" fill="#87b1d2" stroke="#87b1d2"/><path d="M1143,-43L1125,31L1285,-53Z" fill="#809fc7" stroke="#809fc7"/><path d="M1143,-43L1285,-53L1385,-110Z" fill="#8092bf" stroke="#8092bf"/><path d="M1285,-53L1125,31L1310,84Z" fill="#7f97c0" stroke="#7f97c0"/><path d="M1285,-53L1310,84L1444,74Z" fill="#7e88b5" stroke="#7e88b5"/><path d="M1285,-53L1444,74L1385,-110Z" fill="#8084b6" stroke="#8084b6"/><path d="M-100,31L-121,238L98,114Z" fill="#f0feeb" stroke="#f0feeb"/><path d="M98,114L-121,238L111,313Z" fill="#d5fadf" stroke="#d5fadf"/><path d="M98,114L111,313L246,237Z" fill="#c9f5d3" stroke="#c9f5d3"/><path d="M98,114L246,237L264,109Z" fill="#d3f4d2" stroke="#d3f4d2"/><path d="M264,109L246,237L411,260Z" fill="#bef0c9" stroke="#bef0c9"/><path d="M264,109L411,260L459,103Z" fill="#c1eecc" stroke="#c1eecc"/><path d="M459,103L411,260L532,287Z" fill="#a8e8cc" stroke="#a8e8cc"/><path d="M459,103L532,287L629,66Z" fill="#aee6d3" stroke="#aee6d3"/><path d="M629,66L532,287L709,89Z" fill="#a4e1d7" stroke="#a4e1d7"/><path d="M709,89L532,287L741,301Z" fill="#8edcd5" stroke="#8edcd5"/><path d="M709,89L741,301L926,138Z" fill="#8bd3d5" stroke="#8bd3d5"/><path d="M926,138L741,301L999,215Z" fill="#78c7ce" stroke="#78c7ce"/><path d="M926,138L999,215L1125,31Z" fill="#80b7c9" stroke="#80b7c9"/><path d="M1125,31L999,215L1165,267Z" fill="#6fabbe" stroke="#6fabbe"/><path d="M1125,31L1165,267L1310,84Z" fill="#749db9" stroke="#749db9"/><path d="M1310,84L1165,267L1281,281Z" fill="#6295ae" stroke="#6295ae"/><path d="M1310,84L1281,281L1432,248Z" fill="#6488a6" stroke="#6488a6"/><path d="M1310,84L1432,248L1444,74Z" fill="#7381a7" stroke="#7381a7"/><path d="M1444,74L1432,248L1462,415Z" fill="#597da0" stroke="#597da0"/><path d="M-121,238L-83,889L-88,753Z" fill="#90b0d9" stroke="#90b0d9"/><path d="M-121,238L-88,753L-71,380Z" fill="#a4dff5" stroke="#a4dff5"/><path d="M-121,238L-71,380L64,368Z" fill="#c0f4ef" stroke="#c0f4ef"/><path d="M-121,238L64,368L111,313Z" fill="#c0f6e8" stroke="#c0f6e8"/><path d="M111,313L64,368L297,396Z" fill="#a4e8df" stroke="#a4e8df"/><path d="M111,313L297,396L246,237Z" fill="#aaecd7" stroke="#aaecd7"/><path d="M246,237L297,396L411,260Z" fill="#a4ebd1" stroke="#a4ebd1"/><path d="M411,260L297,396L370,401Z" fill="#92e1d4" stroke="#92e1d4"/><path d="M411,260L370,401L532,287Z" fill="#92e3d4" stroke="#92e3d4"/><path d="M532,287L370,401L614,398Z" fill="#7dd9db" stroke="#7dd9db"/><path d="M532,287L614,398L741,301Z" fill="#77d7dd" stroke="#77d7dd"/><path d="M741,301L614,398L765,428Z" fill="#61cae4" stroke="#61cae4"/><path d="M741,301L765,428L965,409Z" fill="#54bee0" stroke="#54bee0"/><path d="M741,301L965,409L999,215Z" fill="#60c0d5" stroke="#60c0d5"/><path d="M999,215L965,409L1127,361Z" fill="#4eabcc" stroke="#4eabcc"/><path d="M999,215L1127,361L1165,267Z" fill="#54a7c2" stroke="#54a7c2"/><path d="M1165,267L1127,361L1281,281Z" fill="#4a98bc" stroke="#4a98bc"/><path d="M1281,281L1127,361L1234,442Z" fill="#3b8dbf" stroke="#3b8dbf"/><path d="M1281,281L1234,442L1462,415Z" fill="#367ab6" stroke="#367ab6"/><path d="M1281,281L1462,415L1432,248Z" fill="#477aab" stroke="#477aab"/><path d="M-71,380L-88,753L-24,615Z" fill="#92bcde" stroke="#92bcde"/><path d="M-71,380L-24,615L63,560Z" fill="#92cee5" stroke="#92cee5"/><path d="M-71,380L63,560L64,368Z" fill="#9fe0ed" stroke="#9fe0ed"/><path d="M64,368L63,560L297,396Z" fill="#92dae1" stroke="#92dae1"/><path d="M297,396L63,560L278,568Z" fill="#7dc9d3" stroke="#7dc9d3"/><path d="M297,396L278,568L400,534Z" fill="#74c6cf" stroke="#74c6cf"/><path d="M297,396L400,534L370,401Z" fill="#7cd2d5" stroke="#7cd2d5"/><path d="M370,401L400,534L614,398Z" fill="#6fccd8" stroke="#6fccd8"/><path d="M614,398L400,534L618,587Z" fill="#58bad4" stroke="#58bad4"/><path d="M614,398L618,587L765,428Z" fill="#51badd" stroke="#51badd"/><path d="M765,428L618,587L737,612Z" fill="#41a5d4" stroke="#41a5d4"/><path d="M765,428L737,612L986,643Z" fill="#3393cb" stroke="#3393cb"/><path d="M765,428L986,643L965,409Z" fill="#339ed3" stroke="#339ed3"/><path d="M965,409L986,643L1141,619Z" fill="#207abd" stroke="#207abd"/><path d="M965,409L1141,619L1127,361Z" fill="#298dc8" stroke="#298dc8"/><path d="M1127,361L1141,619L1234,442Z" fill="#217dbf" stroke="#217dbf"/><path d="M1234,442L1141,619L1311,581Z" fill="#1761ad" stroke="#1761ad"/><path d="M1234,442L1311,581L1462,415Z" fill="#2064af" stroke="#2064af"/><path d="M1462,415L1311,581L1468,626Z" fill="#174a9f" stroke="#174a9f"/><path d="M-24,615L-88,753L45,753Z" fill="#8495c2" stroke="#8495c2"/><path d="M-24,615L45,753L63,560Z" fill="#84a7ca" stroke="#84a7ca"/><path d="M63,560L45,753L285,705Z" fill="#789aba" stroke="#789aba"/><path d="M63,560L285,705L278,568Z" fill="#75a9c0" stroke="#75a9c0"/><path d="M278,568L285,705L400,534Z" fill="#6ba7bc" stroke="#6ba7bc"/><path d="M400,534L285,705L412,824Z" fill="#608caa" stroke="#608caa"/><path d="M400,534L412,824L618,587Z" fill="#5593b6" stroke="#5593b6"/><path d="M618,587L412,824L644,800Z" fill="#4473a9" stroke="#4473a9"/><path d="M618,587L644,800L737,612Z" fill="#3c82bb" stroke="#3c82bb"/><path d="M737,612L644,800L792,769Z" fill="#306bb2" stroke="#306bb2"/><path d="M737,612L792,769L907,747Z" fill="#2967b0" stroke="#2967b0"/><path d="M737,612L907,747L986,643Z" fill="#266db4" stroke="#266db4"/><path d="M986,643L907,747L1105,785Z" fill="#164ca0" stroke="#164ca0"/><path d="M986,643L1105,785L1141,619Z" fill="#124ea1" stroke="#124ea1"/><path d="M1141,619L1105,785L1269,724Z" fill="#0a3893" stroke="#0a3893"/><path d="M1141,619L1269,724L1311,581Z" fill="#0f439a" stroke="#0f439a"/><path d="M1311,581L1269,724L1468,626Z" fill="#0f3291" stroke="#0f3291"/><path d="M1468,626L1269,724L1462,825Z" fill="#09137c" stroke="#09137c"/><path d="M-88,753L-83,889L45,753Z" fill="#7f7eb2" stroke="#7f7eb2"/><path d="M45,753L-83,889L137,988Z" fill="#757b9c" stroke="#757b9c"/><path d="M45,753L137,988L311,903Z" fill="#68768f" stroke="#68768f"/><path d="M45,753L311,903L285,705Z" fill="#67759e" stroke="#67759e"/><path d="M285,705L311,903L365,882Z" fill="#597091" stroke="#597091"/><path d="M285,705L365,882L412,824Z" fill="#586f94" stroke="#586f94"/><path d="M412,824L365,882L536,972Z" fill="#4b6b86" stroke="#4b6b86"/><path d="M412,824L536,972L644,800Z" fill="#40678f" stroke="#40678f"/><path d="M644,800L536,972L791,894Z" fill="#305f90" stroke="#305f90"/><path d="M644,800L791,894L792,769Z" fill="#27589f" stroke="#27589f"/><path d="M792,769L791,894L907,747Z" fill="#204f9d" stroke="#204f9d"/><path d="M907,747L791,894L949,979Z" fill="#19498d" stroke="#19498d"/><path d="M907,747L949,979L1105,785Z" fill="#0e3b8c" stroke="#0e3b8c"/><path d="M1105,785L949,979L1135,955Z" fill="#073177" stroke="#073177"/><path d="M1105,785L1135,955L1262,948Z" fill="#002270" stroke="#002270"/><path d="M1105,785L1262,948L1269,724Z" fill="#011b7b" stroke="#011b7b"/><path d="M1269,724L1262,948L1400,892Z" fill="#000d6c" stroke="#000d6c"/><path d="M1269,724L1400,892L1462,825Z" fill="#02046d" stroke="#02046d"/><path d="M137,988L949,979L536,972Z" fill="#3f6779" stroke="#3f6779"/><path d="M137,988L536,972L311,903Z" fill="#587079" stroke="#587079"/><path d="M311,903L536,972L365,882Z" fill="#4f6d7f" stroke="#4f6d7f"/><path d="M536,972L949,979L791,894Z" fill="#245786" stroke="#245786"/><path d="M949,979L1262,948L1135,955Z" fill="#022968" stroke="#022968"/></g></svg>